<svg 
  height="64" 
  preserveAspectRatio="xMinYMin meet" 
  viewBox="0 0 5.12 5.12" 
  width="64" 
  xmlns="http://www.w3.org/2000/svg"
>
  <g transform="matrix(.01613854 0 0 .01613854 .48 6.372786)">
    <path d="m225.628-77.627h-195.37c-16.713 0-30.258-13.545-30.258-30.255v-256.742c0-16.71 13.546-30.256 30.257-30.256h195.37c16.71 0 30.26 13.546 30.26 30.256v256.742c0 16.71-13.55 30.255-30.26 30.255z" fill="#828282"/>
    <path d="m160.36-121.28v-125.99s8.195-30.15-100.943 12.334c-.2.539-.2-116.504-.2-116.504l35.66-.22v74.991s99.846-39.325 99.846 29.824v125.565h-34.362zm20.32-184.994h-37.824c13.615-16.646 25.94-45.167 25.94-45.167h39.11s-6.696 18.587-27.225 45.167zm-120.815 184.776v-71.748l35.878 35.877z" fill="#fff"/>
  </g>
</svg>