<svg 
  height="64" 
  viewBox="0 0 64 63.999998" 
  width="64" 
  xmlns="http://www.w3.org/2000/svg"
>
  <g 
    stroke-width=".131118" 
    transform="matrix(3.123445 0 0 3.123445 -90.311195 -77.65221)"
  >
    <path d="m49.338393 34.149667c.02793.309568.04746.622021.04746.938932 0-.317042-.01954-.629364-.04746-.938932z" fill="#6666e0"/>
    <path d="m34.166261 34.095515s-2.843808 10.47865 8.555156 10.569908a10.225987 10.225987 0 0 0 6.611207-8.53103c.02767-.2722.03593-.549776.04196-.828007.0012-.0733.01088-.14423.01088-.217918 0-.317042-.01941-.629364-.04747-.938932-3.011114 11.855515-16.333834 7.211726-15.171739-.05402z" fill="#6666e0"/>
    <path d="m40.060518 30.205914s-10.61239-2.963256-10.450067 8.608783a10.25575 10.25575 0 0 0 2.47327 3.697514c.04497.04314.0927.08391.138854.126397a10.262831 10.262831 0 0 0 .970269.790508c.05245.03763.102141.07867.154981.115777a10.184684 10.184684 0 0 0 1.119613.664766c.112499.05795.227357.110794.342216.164683a10.120044 10.120044 0 0 0 1.022717.414987c.08536.02924.167175.06556.253712.09283a10.137613 10.137613 0 0 0 1.272496.301571c.130069.02308.262235.04196.393353.06005a10.258635 10.258635 0 0 0 1.347625.104894c.01731 0 .03409.0026.0514.0026.340118 0 .67591-.01809 1.007244-.05087-11.909274-2.841033-7.381393-16.156804-.097683-15.09449z" fill="#629df8"/>
    <g fill="#6666e0">
      <path d="m44.197275 35.693969s2.511032-10.585905-8.79156-10.112963a10.122273 10.122273 0 0 0 -6.368116 10.898095c2.378865-11.977193 15.930385-8.09913 15.159676-.785132z"/>
      <path d="m38.770452 40.249516s10.631796 1.38801 9.966243-8.720233a10.169344 10.169344 0 0 0 -11.432399-6.492022c11.846862 1.454225 8.767829 15.315838 1.466156 15.212255z"/>
      <path d="m42.110409 35.088731a2.8645245 2.8645245 0 1 1 -2.863607-2.864656 2.8643933 2.8643933 0 0 1 2.863607 2.864656z"
      />
    </g>
  </g>
</svg>