<?xml version="1.0" encoding="utf-8"?>
<!-- Generator: Adobe Illustrator 21.0.0, SVG Export Plug-In . SVG Version: 6.00 Build 0)  -->
<svg version="1.1" id="Layer_1" xmlns="http://www.w3.org/2000/svg" xmlns:xlink="http://www.w3.org/1999/xlink" x="0px" y="0px"
	 viewBox="0 0 1171.8 385.5" style="enable-background:new 0 0 1171.8 385.5;" xml:space="preserve">
<path fill="white" d="M1133.9,176.9c0.2,12.7,0.2,25.1-0.2,29.5c-0.5,0.7-1.3,0.9-2,1.2c-7.9,2.9-15.6,6.3-23.5,9.2c-4,1.5-8,3.2-12,4.7
	c-9.7,3.9-19.4,7.9-29.2,11.5c-4,1.5-8,3.1-11.9,4.8c-8.5,3.5-17.1,6.9-25.6,10.2c-7.1,2.8-14.2,5.6-21.3,8.4
	c-8.1,3.2-16.2,6.6-24.3,9.7c-9.6,3.7-19.2,7.6-28.8,11.3c-4.3,1.6-8.6,3.3-12.8,5.2c-0.1,0.1-0.3,0-0.5,0c-0.2-0.2-0.5-0.4-0.6-0.7
	c-0.1-1-0.1-1.9-0.1-2.9c0-8.6,0-17.3,0-25.9c0-1.1-0.2-2.2,0.3-3.3c1.5-1.4,3.5-1.4,5.1-2.4c3.4-1,6.6-2.4,9.8-3.6
	c7.3-2.7,14.6-5.5,21.9-8.1c2.8-1,5.7-2.1,8.5-3.2c5.8-2.2,11.6-4.3,17.4-6.5c3-1.1,5.9-2.3,8.9-3.3c4.3-1.6,8.6-3.3,12.9-4.9
	c3.4-1.2,6.8-2.6,10.3-3.8c3.3-1.2,6.5-2.6,9.8-3.7c4.8-1.7,9.5-3.5,14.3-5.3c3.3-1.2,6.5-2.4,9.8-3.7c4.5-1.7,8.9-3.3,13.4-5
	c3.1-1.2,6.2-2.3,9.4-3.5c0.6-0.2,1.1-0.5,1.7-0.8c0-0.4-0.1-0.6-0.1-1c-6.5-2.3-13-5-19.6-7.3c-1.5-0.5-2.9-1.2-4.4-1.8
	c-6.4-2.5-12.8-4.7-19.1-7.2c-3.8-1.5-7.7-2.9-11.6-4.3c-3.1-1.2-6.2-2.3-9.4-3.5c-4.5-1.7-8.9-3.4-13.3-5.1
	c-3.6-1.3-7.1-2.6-10.7-4c-4.2-1.6-8.3-3.1-12.5-4.7c-1.6-0.6-3.3-1.3-4.9-1.9c-6.4-2.4-12.8-4.8-19.2-7.2
	c-3.7-1.4-7.4-2.7-11.1-4.2c-2.1-0.3-3.8-1.6-5.8-2.1c-2-0.6-3.9-1.4-5.8-2.2c-1.6-0.6-3.3-1.3-4.9-1.9c-0.6-0.3-0.9-0.9-1-1.5
	c-0.1-0.3,0-0.6,0-1c0-9.6,0-19.2,0-28.8c0-0.6,0-1.3,0.5-1.7c0.3,0,0.6,0,0.9,0.1c5.6,2.3,11.2,4.4,16.8,6.6
	c5.2,2,10.3,4.1,15.5,6.2c8.6,3.4,17.1,6.9,25.7,10.1c4,1.5,8,3.2,11.9,4.7c7.2,2.9,14.5,5.7,21.7,8.6c6.8,2.7,13.6,5.3,20.4,8.1
	c9.7,3.9,19.5,7.8,29.2,11.6c5.3,2.1,10.7,4.1,16,6.2c5.2,2,10.3,4.1,15.5,6.2c4.6,1.8,9.1,3.8,13.7,5.4
	C1130.6,175,1132.2,175.6,1133.9,176.9z"/>
<path fill="white" d="M233.9,100.6c0.2,0.2,0.5,0.4,0.6,0.7c0.1,0.5,0.1,1,0.1,1.4c0,9.4,0,18.9,0,28.3c0,0.8,0.1,1.6-0.4,2.5
	c-1.4,0.6-3,1.3-4.7,1.9c-3.9,1.4-7.7,2.9-11.6,4.3c-1.8,0.7-3.6,1.3-5.4,2c-6.2,2.5-12.5,4.6-18.7,7.1c-3.8,1.5-7.7,2.9-11.6,4.3
	c-3.1,1.2-6.2,2.3-9.4,3.5c-4.5,1.7-8.9,3.4-13.4,5.1c-3.6,1.3-7.1,2.6-10.7,4c-4.2,1.6-8.3,3.1-12.5,4.7c-1.6,0.6-3.3,1.3-4.9,1.9
	c-6.4,2.4-12.8,4.8-19.2,7.2c-3.3,1.2-6.5,2.5-9.8,3.6c-3.5,1.1-6.8,2.6-10.2,3.9c-3.3,1.2-6.6,2.4-9.8,3.7
	c-0.6,0.2-1.1,0.6-1.3,1.4c5.3,2,10.6,4.1,15.9,6c2.5,0.9,5,2,7.6,2.9c2.4,0.8,4.8,1.7,7.2,2.6c3.8,1.5,7.7,2.9,11.6,4.3
	c3.1,1.2,6.2,2.3,9.4,3.5c4.5,1.7,8.9,3.4,13.4,5.1c3.6,1.3,7.1,2.6,10.7,4c1.8,0.7,3.6,1.3,5.4,2c4,1.5,8,3,12,4.5
	c4.3,1.6,8.6,3.3,12.9,4.9c3.3,1.2,6.5,2.5,9.8,3.6c4.3,1.5,8.6,3.3,12.9,4.9c6.7,2.4,13.4,5,20.1,7.4c1.5,0.5,3,1,4.2,2.1
	c0.1,0.3,0.3,0.6,0.3,0.9c0.3,13.9,0.2,27.3-0.2,31.6c-0.1,0.3-0.4,0.3-0.8,0.2c-2.5-0.6-4.7-2.1-7.1-2.6c-4.9-2.3-10.1-3.9-15-6
	c-3.5-1.5-7-3-10.6-4.2c-3.6-1.3-7.1-2.8-10.6-4.2c-3.5-1.4-7.1-2.8-10.6-4.2c-5.3-2.1-10.6-4.1-16-6.2c-3.5-1.4-7.1-2.8-10.6-4.2
	c-7.1-2.8-14.1-5.7-21.3-8.4c-5.2-2-10.3-4.1-15.5-6.2c-8.6-3.4-17.1-6.9-25.7-10.1c-5.2-2-10.3-4.1-15.5-6.2
	c-8.6-3.4-17-7-25.7-10.1c-1.9-0.7-3.8-1.5-5.7-2.3c-0.4-0.2-0.7-0.6-1-0.8c-0.1-0.3-0.2-0.4-0.2-0.6c0-9.4,0-18.9,0-28.3
	c0-0.3,0.1-0.6,0.2-1.1c0.4-0.3,0.8-0.8,1.4-1c3.3-1.2,6.5-2.6,9.7-3.9c3.1-1.2,6.2-2.5,9.3-3.7c3.2-1.3,6.5-2.6,9.7-3.9
	c5.4-2,10.7-4.1,16-6.2c5.3-2.1,10.6-4.3,15.9-6.4c4.4-1.7,8.8-3.5,13.3-5.2c4.5-1.7,8.9-3.5,13.3-5.3c4.9-2,9.7-3.9,14.6-5.8
	c4.9-1.9,9.7-3.9,14.6-5.8c4.5-1.7,8.9-3.5,13.3-5.2c4.3-1.6,8.5-3.5,12.8-5.1c6.4-2.4,12.6-5.2,19.1-7.4c3.6-1.3,7.1-2.8,10.6-4.2
	c5.7-2.3,11.5-4.6,17.2-6.9C233.6,100.6,233.8,100.6,233.9,100.6z"/>
<path fill="white" d="M753.5,343.4c-11.4-0.1-22.4-0.1-33.4-0.2c-0.1,0-0.3-0.1-0.4-0.2c0-0.1-0.1-0.3-0.1-0.4c0.1-0.3,0.1-0.6,0.2-0.9
	c3.4-7.3,7-14.7,10.3-22c2.8-6.1,5.8-12.1,8.5-18.1c2-4.5,4.3-8.9,6.3-13.4c2.3-5.2,4.9-10.3,7.2-15.6c2-4.5,4.3-8.9,6.3-13.4
	c2.2-5.1,4.8-10.1,7-15.1c2.2-5.1,4.8-10,7.1-15.1c2.4-5.4,5.1-10.6,7.5-16c2.2-5,4.8-9.7,6.9-14.7c2.9-6.7,6.2-13.2,9.2-19.9
	c3.7-8.1,7.7-16.1,11.4-24.2c2.2-4.9,4.7-9.8,6.9-14.7c2.1-4.7,4.4-9.2,6.5-13.8c2.2-4.9,4.6-9.8,6.9-14.7c2.4-5.4,5.1-10.6,7.5-16
	c2.3-5.1,4.8-10,7-15.1c2-4.5,4.3-8.9,6.3-13.4c2.3-5.2,4.9-10.3,7.2-15.6c1.7-3.9,3.6-7.8,5.5-11.7c0.4-0.9,0.9-1.7,1.3-2.4
	c0.4-0.1,0.7-0.3,1-0.3c10.6,0,21.1,0,31.7,0c0.3,0,0.6,0.1,0.9,0.2c0.4,0.1,0.5,0.3,0.5,0.7c-0.1,0.3-0.1,0.6-0.3,0.9
	c-2.4,5-4.8,10.1-7.1,15.1c-2.9,6.4-5.9,12.7-8.9,19c-2.1,4.5-4.3,8.9-6.3,13.4c-2.3,5.2-4.9,10.3-7.2,15.6c-2,4.5-4.3,8.9-6.3,13.4
	c-2.3,5.2-4.9,10.3-7.2,15.6c-1.9,4.4-4.2,8.6-6.1,13c-2.7,6.3-6,12.3-8.6,18.6c-0.9,2.1-1.9,4-2.9,6c-3.4,7.2-6.8,14.4-10.1,21.6
	c-2,4.5-4.3,8.9-6.3,13.4c-2.3,5.2-4.9,10.3-7.2,15.6c-2,4.5-4.3,8.9-6.3,13.4c-2.2,5.1-4.8,10.1-7,15.1c-2,4.7-4.4,9.2-6.5,13.8
	c-2.2,5-4.7,9.8-6.8,14.7c-2.1,4.8-4.5,9.5-6.7,14.3c-2.2,5-4.7,9.8-6.9,14.7c-2.1,4.7-4.4,9.2-6.5,13.8c-2.5,5.7-5.3,11.2-7.9,16.9
	c-1,2.2-1.9,4.4-3,6.5C754.5,342.1,754,342.6,753.5,343.4z"/>
<path fill="white" d="M691.7,104.5c-0.4,0.3-0.9,0.7-1.3,1.2c-2.2,2.6-4.3,5.1-6.4,7.8c-2.8,3.5-5.4,7.1-8.2,10.6c-3.7,4.6-7.3,9.2-11,13.8
	c-4.6,5.7-9.2,11.5-13.7,17.2c-1.5,1.4-1.9,1.7-2,1.6c-0.1-0.1,0.1-0.3,0.3-0.9c1.4-4.2,4.3-15-0.2-27.1c-4-10.7-11.5-16.4-15-19
	c-11.2-8.3-23.4-9.5-30.4-9.5c-1.3,0.2-2.7,0.2-4.1,0.2c-1.5,0-2.8,0.8-4.2,0.9c-2.2,0.1-4.4,0.8-6.5,1.4c-7.9,2.3-15.6,5.3-23,9.1
	c-7.5,3.9-14.6,8.3-21.7,13c-7.3,4.9-14.2,10.3-20.3,16.6c-3.2,3.3-6.4,6.6-9.4,10.2c-3.7,4.4-7.2,8.9-10.5,13.7
	c-6.1,8.8-11.6,17.9-16.4,27.4c-5.1,10.1-10,20.2-14,30.8c-1,2.5-1.9,5-2.7,7.6c-0.8,2.7-1.8,5.4-2.5,8.2c-0.6,2.6-1.7,5.1-1.9,7.8
	c-0.8,1.6-0.5,3.5-1.1,5.1c-0.6,1.9-0.6,3.8-0.8,5.7c0,0.5-0.1,1-0.2,1.4c-0.5,1.1-0.5,2.2-0.5,3.3c0,5.4-0.6,10.8,0.8,16.2
	c0,1.9,0.5,3.8,1.1,5.6c1.4,4.6,3.2,8.9,6.1,12.9c3.6,5.1,8.5,8.6,14,11.2c2.5,1.2,5.3,2.1,8.1,2.7c2.8,0.6,5.5,1.4,8.5,1.4
	c1.1,0,2.2,0,3.3,0.3c3.7,0.8,7.3,0.3,11,0.4c1.8-0.8,3.8-0.5,5.7-0.7c2.7-0.1,5.4,0,8-0.9c2,0.2,3.7-0.8,5.6-1.1
	c1.9-0.3,3.6-1.1,5.4-1.7c2.5-0.8,4.6-2,6.8-3.4c4.3-2.7,8.4-5.8,12.4-8.9c5.3-4.1,10.5-8.3,15.3-13c3.7-3.7,7.4-7.5,11.2-11.2
	c0.4-0.4,0.8-1,1.5-1.1c0,0.7,0,1.3,0.1,2c-0.1,0.8-0.1,1.6-0.3,2.4c-0.4,1.1-0.6,2.1-0.6,3.3c0,2.6,0,5.1-0.1,7.7
	c-0.1,2,0.8,3.7,1.2,5.6c3.3,7.1,8.3,12.3,16,14.8c3.8,1.2,6.3,1.7,9.8,1.7c6.2,0,12.5,0,18.7,0c0.6,0,1.3,0.1,2-0.6
	c0.9-2,1.9-4.1,2.8-6.3c2.5-5.5,5.1-11,7.6-16.5c0.7-1.4,1.2-3,1.8-4.4c0.2-0.4,0.1-0.6-0.4-0.9c-5.7-0.2-11.6,0.1-17.3-0.2
	c-2-0.8-3.7-1.8-4.7-3.5c-1.2-2.2-2.6-4.4-3.2-6.9c-0.2-1.1-0.8-2-0.8-3.2c0-2.7,0-5.4,0.1-8.1c0-0.8,0.3-1.5,0.5-2.3
	c1.5-4.9,2.6-9.8,4.1-14.7c0.6-2.1,1.3-4.2,1.8-6.4c0.6-2.3,1.2-4.6,1.8-6.9c1.2-4.3,2.4-8.5,3.5-12.6c2.7-3.4,5.2-6.7,7.8-9.9
	c2.6-3.3,5.2-6.5,7.8-9.7c1.9-2.4,3.9-4.7,5.7-7.1c3.2-4,6.3-8,9.5-12s6.5-7.8,9.6-11.9c3.9-5.2,8.1-10.2,12.1-15.4
	c3.7-4.8,7.6-9.5,11.3-14.2c4-5.2,8.2-10.2,12.2-15.3c1.1-1.4,2.2-2.8,3.2-4.1c2.7-3.4,5.3-6.8,8-10.1c0.1-0.2,0.1-0.5,0.1-0.8
	C716.5,104.3,696.4,104.3,691.7,104.5z M617.2,165.3c-0.6,2.8-1.1,5.6-2,8.3c-0.9,2.5-1.5,5.2-2.1,7.8c-0.4,2-1,4-1.6,6
	c-0.6,2.1-1.1,4.3-1.7,6.4c-0.6,2-1.3,3.9-1.7,5.9c-0.9,3.9-1.9,7.7-3,11.5c-0.4,1.4-0.9,2.7-1.8,3.8c-2,2.5-3.9,5.1-5.9,7.5
	c-3.8,4.7-7.6,9.4-11.3,14.2c-3.2,4.1-6.7,8.1-9.9,12.3c-4.5,5.8-9.4,11.2-14.7,16.4c-5.4,5.2-11.3,9.8-17.7,13.8
	c-3.8,2.3-8,3.9-12.2,5.3c-2.9,0.2-5.6,1.2-8.5,1.2c-2.3,0-4.4-0.9-6.6-1.1c-3.2-1.5-6.2-3.3-8.3-6.3c-2.2-3-3.7-6.3-4.8-9.8
	c-0.3-1.1-0.8-2.1-0.9-3.2c-0.1-1.9-0.9-3.7-0.9-5.6c0-1.9,0-3.8,0-5.7c0-1.6,0.8-3.1,0.8-4.7c0-1.6,0.1-3.2,0.8-4.7
	c0.1-3.5,1.8-6.7,2.3-10.2c1.6-4.5,2.9-9,4.7-13.5c2.1-5.3,4.5-10.5,6.8-15.7c4.8-10.6,10.7-20.6,17.3-30.2
	c2.4-3.5,5.1-6.9,7.8-10.3c2.5-3.1,5.3-6,7.9-9c1.6-1.8,3.1-3.6,4.8-5.3c4.4-4.4,9-8.6,14.1-12.2c5.3-3.9,11.1-6.9,17.4-8.7
	c3.6-1,9.3-1.6,12.8-1c1.7,0.3,3.5,0.5,5.1,1c3.4,1,6.4,2.7,8.9,5.3c2.2,2.4,3.6,5.1,4.5,8.3c1,3.3,0.9,6.6,0.9,10c0,1,0,1.9,0,2.9
	C618.7,159.1,617.9,162.2,617.2,165.3z"/>
<path fill="white" d="M308.1,335.3L430.4,67.4l85.4,0.2c1.1-0.4,1.5-0.8,1.8-1.4c1.1-2.5,2.1-5,3.3-7.4c3.1-6.1,5.6-12.5,8.6-18.6
	c0.2-0.4,0.5-0.8,0.6-1.3c0.1-0.5,0.2-0.9,0.2-1.4c0.1-0.4-0.4-1.1-0.8-1.1c-1.6,0-3.2-0.1-4.8-0.1c-43,0-86,0-129.1,0
	c-22.4,0-44.8,0-67.2,0c-1.3,0-2.6,0-3.8,0c-0.6,0-1.2,0.4-1.6,0.9c-0.4,0.5-0.8,1-1,1.6c-0.9,2.9-2.5,5.5-3.7,8.3
	c-1.3,2.9-2.5,5.8-3.9,8.7c-1.7,3.4-3.2,6.9-4.7,10.4c-0.2,0.5-0.1,0.9,0.2,1.2h86.5L270.5,343.1c0.1,0.1,0.2,0.1,0.2,0.1
	c0.3,0,0.6,0.1,0.9,0.1c10.4,0,20.8,0,31.2,0c0.5,0,0.9-0.2,1.3-0.3c0.4-0.8,0.9-1.4,1.2-2.1C306.3,339,307.2,337.2,308.1,335.3z"/>
</svg>
